<svg width="634" height="500" viewBox="0 0 634 500" fill="none" xmlns="http://www.w3.org/2000/svg">
<path d="M33.3008 425V124.756H112.256V178.198H116.016C122.282 160.474 132.756 146.509 147.437 136.304C162.118 126.099 179.574 120.996 199.805 120.996C220.394 120.996 237.85 126.188 252.173 136.572C266.675 146.777 276.253 160.653 280.908 178.198H284.131C290.397 160.832 301.497 146.956 317.432 136.572C333.545 126.188 352.612 120.996 374.634 120.996C402.563 120.996 425.301 129.858 442.847 147.583C460.571 165.308 469.434 190.462 469.434 223.047V425H386.182V239.697C386.182 222.868 381.706 210.335 372.754 202.1C363.981 193.864 352.97 189.746 339.722 189.746C324.683 189.746 312.866 194.58 304.272 204.248C295.858 213.737 291.65 226.27 291.65 241.846V425H210.815V237.549C210.815 223.047 206.608 211.499 198.193 202.905C189.958 194.132 179.036 189.746 165.43 189.746C151.465 189.746 139.827 194.849 130.518 205.054C121.208 215.08 116.553 228.418 116.553 245.068V425H33.3008Z" fill="white"/>
<path d="M540.92 430.103C527.671 430.103 516.481 425.627 507.351 416.675C498.22 407.544 493.654 396.444 493.654 383.374C493.654 370.125 498.22 359.025 507.351 350.073C516.481 341.121 527.671 336.646 540.92 336.646C554.169 336.646 565.358 341.121 574.489 350.073C583.62 359.025 588.186 370.125 588.186 383.374C588.186 396.444 583.62 407.544 574.489 416.675C565.358 425.627 554.169 430.103 540.92 430.103Z" fill="#FF4900"/>
</svg>
